<svg width="265" height="249" viewBox="0 0 265 249" fill="none" xmlns="http://www.w3.org/2000/svg">
<g filter="url(#filter0_f_25_47)">
<path d="M203.028 4.36746C203 4.36746 202.971 4.36837 202.943 4.37018C172.934 6.22514 149.426 30.9393 149.426 60.6349C149.426 90.3305 172.934 115.045 202.943 116.899C203.122 116.911 203.302 116.886 203.471 116.826C203.64 116.767 203.795 116.673 203.925 116.551C204.056 116.431 204.159 116.286 204.23 116.125C204.301 115.964 204.337 115.79 204.336 115.614V5.65501C204.336 5.31317 204.197 4.98553 203.952 4.74409C203.707 4.50266 203.375 4.36719 203.028 4.36746Z" fill="#32CD32"/>
<path d="M248.479 95.2081C248.034 95.2078 247.608 95.0335 247.292 94.7235L208.491 56.44C208.335 56.2869 208.211 56.1047 208.127 55.9041C208.043 55.7035 207.999 55.4884 208 55.2712V2.65501C207.999 2.42921 208.046 2.20567 208.137 1.99845C208.227 1.79124 208.361 1.60482 208.528 1.45095C208.696 1.29527 208.895 1.17523 209.112 1.09824C209.328 1.02125 209.559 0.98895 209.789 1.00333C239.994 2.86983 263.654 27.7451 263.654 57.6345C263.655 71.2124 258.721 84.3403 249.748 94.635C249.597 94.8066 249.412 94.9458 249.205 95.0442C248.997 95.1425 248.771 95.1979 248.541 95.2068C248.521 95.2077 248.5 95.2081 248.479 95.2081Z" fill="#3E0CD5"/>
<path d="M210.114 117.27C209.685 117.269 209.273 117.108 208.96 116.819C208.793 116.665 208.659 116.479 208.568 116.271C208.477 116.064 208.43 115.84 208.431 115.614V68.1406C208.431 67.8138 208.53 67.4943 208.714 67.2226C208.898 66.9508 209.159 66.739 209.465 66.614C209.771 66.4889 210.108 66.4561 210.433 66.5198C210.758 66.5835 211.057 66.7408 211.291 66.9718L245.15 100.379C245.311 100.538 245.437 100.727 245.522 100.936C245.606 101.145 245.646 101.368 245.641 101.592C245.635 101.817 245.583 102.038 245.487 102.242C245.392 102.446 245.256 102.629 245.087 102.779C235.447 111.342 223.162 116.446 210.217 117.266C210.183 117.27 210.148 117.27 210.114 117.27Z" fill="#FE543D"/>
<path d="M197.459 176.683H160.718C160.188 176.683 159.68 176.475 159.306 176.106C158.931 175.736 158.721 175.235 158.721 174.713C158.721 174.19 158.931 173.689 159.306 173.32C159.68 172.95 160.188 172.742 160.718 172.742H197.459C197.988 172.742 198.496 172.95 198.871 173.32C199.245 173.689 199.456 174.19 199.456 174.713C199.456 175.235 199.245 175.736 198.871 176.106C198.496 176.475 197.988 176.683 197.459 176.683Z" fill="#CCCCCC"/>
<path d="M149.735 178.653C148.906 178.653 148.095 178.41 147.406 177.956C146.716 177.501 146.179 176.855 145.861 176.099C145.544 175.343 145.461 174.511 145.623 173.709C145.784 172.906 146.184 172.169 146.77 171.591C147.357 171.012 148.104 170.618 148.917 170.458C149.731 170.299 150.574 170.381 151.34 170.694C152.106 171.007 152.761 171.537 153.222 172.217C153.682 172.898 153.928 173.698 153.928 174.516C153.928 175.613 153.487 176.666 152.7 177.441C151.914 178.217 150.847 178.653 149.735 178.653Z" fill="#3D5AFE"/>
<path d="M149.735 190.474C148.906 190.474 148.095 190.231 147.406 189.777C146.716 189.322 146.179 188.676 145.861 187.92C145.544 187.164 145.461 186.332 145.623 185.53C145.784 184.727 146.184 183.99 146.77 183.411C147.357 182.833 148.104 182.439 148.917 182.279C149.731 182.119 150.574 182.201 151.34 182.514C152.106 182.828 152.761 183.358 153.222 184.038C153.682 184.719 153.928 185.518 153.928 186.337C153.928 187.434 153.487 188.486 152.7 189.262C151.914 190.038 150.847 190.474 149.735 190.474Z" fill="#3D5AFE"/>
<path d="M197.459 200.325H160.718C160.188 200.325 159.68 200.117 159.306 199.747C158.931 199.378 158.721 198.877 158.721 198.354C158.721 197.832 158.931 197.331 159.306 196.961C159.68 196.592 160.188 196.384 160.718 196.384H197.459C197.988 196.384 198.496 196.592 198.871 196.961C199.245 197.331 199.456 197.832 199.456 198.354C199.456 198.877 199.245 199.378 198.871 199.747C198.496 200.117 197.988 200.325 197.459 200.325Z" fill="#CCCCCC"/>
<path d="M149.735 202.295C148.906 202.295 148.095 202.052 147.406 201.598C146.716 201.143 146.179 200.497 145.861 199.741C145.544 198.985 145.461 198.153 145.623 197.351C145.784 196.548 146.184 195.811 146.77 195.232C147.357 194.654 148.104 194.26 148.917 194.1C149.731 193.94 150.574 194.022 151.34 194.335C152.106 194.649 152.761 195.179 153.222 195.859C153.682 196.54 153.928 197.339 153.928 198.158C153.928 199.255 153.487 200.307 152.7 201.083C151.914 201.859 150.847 202.295 149.735 202.295Z" fill="#3D5AFE"/>
<path d="M208.399 196.353H223.575C223.681 196.353 223.782 196.311 223.857 196.237C223.932 196.163 223.974 196.063 223.974 195.959V103.394C223.974 103.289 223.932 103.189 223.857 103.115C223.782 103.042 223.681 103 223.575 103C223.469 103 223.368 103.042 223.293 103.115C223.218 103.189 223.176 103.289 223.176 103.394V195.565H208.399C208.293 195.565 208.192 195.607 208.117 195.68C208.042 195.754 208 195.855 208 195.959C208 196.064 208.042 196.164 208.117 196.238C208.192 196.312 208.293 196.353 208.399 196.353V196.353Z" fill="#3F3D56"/>
<path d="M10.9597 173.215L14.1035 182.812C14.1035 182.812 11.26 191.819 12.6069 201.86C13.9539 211.9 13.2054 212.196 13.2054 212.196C13.2054 212.196 -0.25217 211.431 1.09476 215.42C2.44169 219.408 15.6001 217.07 15.6001 217.07C15.6001 217.07 18.1271 216.399 19.3244 209.311C20.5217 202.224 23.5317 188.572 23.5317 188.572L20.7013 175.685L10.9597 173.215Z" fill="#FFB9B9"/>
<path d="M59.5988 220.023L71.5712 219.582L80.7002 218.253L78.0063 227.112L55.8556 227.703L59.5988 220.023Z" fill="#FFB9B9"/>
<path d="M76.809 221.204C76.809 221.204 76.6594 217.956 75.3125 218.103C73.9655 218.251 74.8636 216.922 76.0605 216.627C77.2575 216.331 80.6998 214.855 80.6998 214.855L94.3184 215.741C94.3184 215.741 103.148 223.419 99.5565 227.554C95.9649 231.688 86.686 227.996 86.686 227.996L76.659 228.144C76.659 228.144 73.367 222.828 76.809 221.204Z" fill="#090814"/>
<path d="M82.1967 209.834L86.5367 229.916L95.516 228.144L90.4279 203.042L85.0402 200.237L82.1967 209.834Z" fill="#FFB9B9"/>
<path d="M30.5652 207.324C30.5652 207.324 5.42206 218.547 16.0503 229.916C16.0503 229.916 16.0503 235.231 27.2746 234.198C38.4989 233.164 60.1987 231.245 61.2464 231.835C62.2941 232.425 65.5864 220.17 62.7429 219.58C59.8995 218.989 56.4575 218.251 56.4575 218.251C56.4575 218.251 59.4499 217.808 59.4499 215.298C59.4499 215.298 67.98 214.708 70.5253 209.393C73.0706 204.079 75.4638 200.091 75.4638 200.091L81.2986 214.855C81.2986 214.855 88.0333 202.599 93.1214 208.062C93.1214 208.062 87.4345 172.772 83.0944 169.524C78.7544 166.275 75.7613 165.242 71.7205 168.195C67.6797 171.148 63.9385 178.678 63.9385 178.678L30.5652 207.324Z" fill="#090814"/>
<path d="M90.5775 223.862C89.5315 224.641 88.5323 225.48 87.5851 226.373C86.3878 227.555 84.7417 226.964 84.5927 226.373C84.4438 225.783 81.7492 226.816 81.45 231.098C81.1508 235.38 79.355 239.22 84.1439 240.548C88.9328 241.877 88.7831 245.716 88.7831 245.716C92.5723 247.51 96.9211 247.775 100.905 246.455C107.64 244.24 105.245 241.877 105.245 241.877L96.2659 227.259C96.2659 227.259 93.8699 222.828 90.5775 223.862Z" fill="#090814"/>
<path d="M65.7347 150.624C65.7347 150.624 80.1017 155.496 81.5982 156.529C83.0948 157.561 89.8294 162.434 86.5367 164.945C83.2441 167.456 80.5519 169.079 74.1155 167.16C67.6791 165.24 60.4969 159.334 60.4969 159.334L65.7347 150.624Z" fill="#FFB9B9"/>
<path d="M25.1778 139.845C25.1778 139.845 25.3274 145.604 24.729 146.194C24.1305 146.784 31.9125 164.208 40.4429 156.53C48.9734 148.852 42.3883 145.751 42.3883 145.751C42.3883 145.751 39.2456 139.992 39.3959 139.402C39.5462 138.812 25.4781 139.402 25.4781 139.402L25.1778 139.845Z" fill="#FFB9B9"/>
<path d="M12.0085 153.577C12.0085 153.577 6.32152 155.644 6.32152 161.255C6.32152 166.866 8.41655 174.544 9.76348 174.987C11.1104 175.43 20.0897 181.484 21.7359 177.202C23.3821 172.92 12.0085 153.577 12.0085 153.577Z" fill="#3D5AFE"/>
<path d="M51.3676 144.127C51.3676 144.127 57.0546 143.093 61.0954 145.308C65.1362 147.523 68.5781 151.953 68.5781 151.953C68.5781 151.953 64.8366 159.779 62.1431 160.96C59.4495 162.141 54.5107 156.235 54.5107 156.235L51.3676 144.127Z" fill="#3D5AFE"/>
<path d="M27.5728 150.919C27.5728 150.919 33.2598 154.759 35.6557 153.872C38.0517 152.985 41.0435 149.147 41.3427 148.852C41.6419 148.556 56.907 178.826 56.907 178.826C56.907 178.826 54.662 189.901 48.6758 193.147C42.6896 196.394 42.7643 198.98 42.0162 201.195C41.2681 203.409 31.615 194.181 31.615 194.181L25.4774 168.491V152.839L27.5728 150.919Z" fill="#3D5AFE"/>
<path d="M25.1032 145.071C25.1032 145.071 23.2324 144.702 21.2853 146.327C19.3382 147.952 10.2099 154.005 10.6598 154.596C11.1097 155.186 15.1512 163.602 16.0503 166.998C16.9494 170.393 18.2949 170.837 18.2949 170.837C18.2949 170.837 21.4377 173.052 20.9888 174.676C20.54 176.301 18.5942 198.449 21.2881 203.322C23.9819 208.195 23.5327 212.476 22.7846 213.658C22.0365 214.839 29.9681 210.262 29.9681 210.262C29.9681 210.262 41.7909 200.812 42.689 198.006C43.2696 196.078 43.6703 194.102 43.8863 192.101C43.8863 192.101 36.2539 162.274 33.8593 160.65C31.4647 159.026 25.1032 145.071 25.1032 145.071Z" fill="#3D5AFE"/>
<path d="M41.5443 144.848C41.5443 144.848 45.2318 142.591 45.9813 143.181C46.7308 143.772 53.7633 143.772 53.9129 144.362C54.0625 144.953 54.3618 159.128 59.4506 162.82C64.5394 166.511 61.246 173.894 61.246 173.894L64.9876 179.799C64.9876 179.799 44.6347 199.141 45.9813 192.498C46.0563 192.128 45.9813 192.055 45.9813 192.055C45.9813 192.055 38.0483 158.538 39.0953 156.766C40.1423 154.994 42.0471 146.959 41.5443 144.848Z" fill="#3D5AFE"/>
<path opacity="0.1" d="M33.2591 145.483C39.3753 145.483 44.3334 140.591 44.3334 134.557C44.3334 128.522 39.3753 123.63 33.2591 123.63C27.1429 123.63 22.1847 128.522 22.1847 134.557C22.1847 140.591 27.1429 145.483 33.2591 145.483Z" fill="black"/>
<path d="M72.9182 157.711L52.565 164.651C52.565 164.651 32.3614 169.376 35.5048 174.84C38.6482 180.303 51.9665 171.002 51.9665 171.002L79.0702 168.006C79.0702 168.006 89.8288 159.04 72.9182 157.711Z" fill="#FFB9B9"/>
<path d="M33.2591 145.308C39.3753 145.308 44.3334 140.416 44.3334 134.381C44.3334 128.347 39.3753 123.455 33.2591 123.455C27.1429 123.455 22.1847 128.347 22.1847 134.381C22.1847 140.416 27.1429 145.308 33.2591 145.308Z" fill="#FFB9B9"/>
<path d="M24.4401 123.522L22.3915 122.787C22.3915 122.787 26.6747 118.561 32.6341 118.929L30.958 117.275C30.958 117.275 35.0552 115.805 38.7799 119.664C40.738 121.692 43.0033 124.075 44.4156 126.762H46.6094L45.6938 128.569L48.8984 130.376L45.6092 130.051C45.9213 131.611 45.8145 133.224 45.2996 134.731L44.5546 136.752C44.5546 136.752 41.5749 130.872 41.5749 130.137V131.975C41.5749 131.975 39.5263 130.322 39.5263 129.219L38.4088 130.505L37.8502 128.484L30.9597 130.505L32.0772 128.852L27.794 129.403L29.4701 127.381C29.4701 127.381 24.6282 129.77 24.4418 131.791C24.2554 133.813 21.8346 136.385 21.8346 136.385L20.7171 134.548C20.7171 134.548 19.0393 126.278 24.4401 123.522Z" fill="#090814"/>
</g>
<defs>
<filter id="filter0_f_25_47" x="0" y="0" width="264.654" height="248.283" filterUnits="userSpaceOnUse" color-interpolation-filters="sRGB">
<feFlood flood-opacity="0" result="BackgroundImageFix"/>
<feBlend mode="normal" in="SourceGraphic" in2="BackgroundImageFix" result="shape"/>
<feGaussianBlur stdDeviation="0.5" result="effect1_foregroundBlur_25_47"/>
</filter>
</defs>
</svg>
