<svg width="75" height="107" viewBox="0 0 75 107" fill="none" xmlns="http://www.w3.org/2000/svg">
<g clip-path="url(#clip0_180_192)">
<path fill-rule="evenodd" clip-rule="evenodd" d="M30.1729 64.131L61.725 58.6807L75 89.8152L58.5833 89.6271L45.0937 100.605L30.1729 64.131Z" fill="#D0401B"/>
<path fill-rule="evenodd" clip-rule="evenodd" d="M48.3208 60.6765L14.4937 61.5752L0 96.1579L16.4167 95.9677L29.9062 106.946L48.3208 60.6765Z" fill="#FF6600"/>
<path fill-rule="evenodd" clip-rule="evenodd" d="M38.1688 0.0606395C40.1167 -0.0229543 41.6521 0.658335 43.2 1.64683C45.1667 2.89656 47.3792 5.36675 50.1104 6.93413C53.9542 9.13683 61.0708 6.0982 64.7167 11.5297C66.8438 14.6979 66.9438 17.1806 67.1021 19.6341C67.2729 22.2819 67.7354 24.7166 70.4354 28.3007C74.9083 34.2317 75.8396 38.1794 73.5354 42.2943C71.9646 45.0989 68.6583 46.6579 67.8917 48.4343C66.2646 52.2148 68.0646 55.0632 65.8354 59.4707C64.2875 62.5261 61.9 64.5407 58.7188 65.5689C56.0354 66.4341 53.3438 65.1823 51.1979 66.0872C47.4229 67.6775 44.6396 71.3745 41.6375 72.3086C40.4771 72.6702 39.3229 72.8478 38.1688 72.8394C37.0167 72.8478 35.8604 72.6702 34.7021 72.3086C31.6979 71.3745 28.9146 67.6775 25.1396 66.0872C22.9938 65.1823 20.3021 66.4341 17.6188 65.5689C14.4396 64.5407 12.05 62.5261 10.5021 59.4707C8.27292 55.0632 10.0729 52.2148 8.44584 48.4343C7.67917 46.6579 4.37292 45.0989 2.80209 42.2943C0.497922 38.1794 1.43126 34.2317 5.90209 28.3007C8.60209 24.7166 9.06459 22.2819 9.23542 19.6341C9.39376 17.1806 9.49376 14.6979 11.6208 11.5297C15.2667 6.0982 22.3833 9.13683 26.2271 6.93413C28.9604 5.36675 31.1708 2.89656 33.1375 1.64683C34.6875 0.658335 36.2229 -0.0229543 38.1688 0.0606395Z" fill="#F5C800"/>
<path fill-rule="evenodd" clip-rule="evenodd" d="M38.1688 0.0629064C40.1167 -0.0227771 41.65 0.660602 43.2 1.64701C45.1667 2.89673 47.3792 5.36693 50.1104 6.93431C53.1667 8.6856 58.2938 7.12449 62.0979 9.14119L19.1563 65.8637C18.6458 65.8219 18.1313 65.7342 17.6188 65.5691C14.4375 64.5408 12.05 62.5283 10.5021 59.4709C8.27292 55.0634 10.0729 52.215 8.44584 48.4344C7.67917 46.6581 4.37292 45.099 2.80209 42.2945C0.49792 38.1796 1.43125 34.2319 5.9 28.3009C8.60209 24.7189 9.06459 22.2821 9.23542 19.6343C9.39375 17.1808 9.49375 14.6981 11.6188 11.5299C15.2667 6.09628 22.3854 9.13701 26.2271 6.93431C28.9604 5.36693 31.1729 2.89673 33.1375 1.64701C34.6875 0.660602 36.2229 -0.0227771 38.1688 0.0629064Z" fill="#FFDD61"/>
<path d="M38.0646 64.1854C53.0269 64.1854 65.1563 52.0182 65.1563 37.0091C65.1563 22 53.0269 9.83276 38.0646 9.83276C23.1023 9.83276 10.9729 22 10.9729 37.0091C10.9729 52.0182 23.1023 64.1854 38.0646 64.1854Z" fill="#E37E00"/>
<path fill-rule="evenodd" clip-rule="evenodd" d="M38.0646 15.2852C50.025 15.2852 59.7187 25.0113 59.7187 37.0091C59.7187 49.0069 50.025 58.733 38.0646 58.733C26.1042 58.733 16.4083 49.0069 16.4083 37.0091C16.4083 25.0113 26.1042 15.2852 38.0646 15.2852Z" fill="#F5C800"/>
<path fill-rule="evenodd" clip-rule="evenodd" d="M38.0646 15.2852C43.7896 15.2852 49 17.515 52.8708 21.1555L26.3208 55.2618C25.3583 54.639 24.4479 53.9389 23.5979 53.174C19.1854 49.1991 16.4083 43.4291 16.4083 37.0091C16.4083 25.0113 26.1042 15.2852 38.0646 15.2852Z" fill="#FFDD61"/>
<path d="M38.7042 24.3134L42.1021 32.2945L50.7187 33.0698C51.1 33.1032 51.3812 33.4397 51.3479 33.8201C51.3333 34.0061 51.2458 34.1691 51.1146 34.2819L44.5958 39.9935L46.525 48.4573C46.6104 48.8314 46.3771 49.2034 46.0042 49.2891C45.8125 49.333 45.6229 49.2933 45.4708 49.195L38.0646 44.752L30.6354 49.2076C30.3083 49.404 29.8833 49.2974 29.6875 48.9693C29.5917 48.8084 29.5687 48.6266 29.6062 48.4573L31.5354 39.9935L25.0146 34.2819C24.7271 34.0311 24.6979 33.5923 24.95 33.3039C25.0771 33.1576 25.2542 33.0782 25.4333 33.0677L34.0292 32.2945L37.4292 24.3092C37.5792 23.956 37.9854 23.793 38.3354 23.9435C38.5104 24.0166 38.6375 24.1524 38.7042 24.3134Z" fill="#E37E00"/>
</g>
<defs>
<clipPath id="clip0_180_192">
<rect width="75" height="107" fill="white"/>
</clipPath>
</defs>
</svg>
