<svg width="33" height="25" viewBox="0 0 33 25" fill="none" xmlns="http://www.w3.org/2000/svg">
<path d="M32.2987 8.79284L16.5806 24.2397C16.383 24.432 16.0685 24.4337 15.8709 24.2397L0.150993 8.79284C-0.0286866 8.615 -0.0520101 8.32751 0.106057 8.12274L6.12274 0.295125C6.21439 0.156768 6.37068 0.0651855 6.54852 0.0651855H25.903V0.0669601C25.98 0.0669836 26.056 0.0846465 26.1251 0.118594C26.1943 0.152541 26.2547 0.201871 26.3018 0.262801L32.3383 8.11557C32.5 8.31496 32.4856 8.60784 32.2987 8.79284Z" fill="#7A29CC"/>
<path d="M20.2312 0.0651855L22.5901 8.25032C22.6347 8.36645 22.6353 8.49488 22.5919 8.61145L16.6973 24.0583C16.6759 24.1166 16.6436 24.1702 16.6021 24.2164L16.5788 24.2397C16.383 24.432 16.0668 24.4337 15.8691 24.2397L15.8476 24.2164C15.8054 24.1704 15.7725 24.1168 15.7506 24.0583L9.85784 8.61145H9.85961C9.82063 8.50979 9.81559 8.39824 9.84523 8.29348L12.2167 0.0651855H19.1802H20.2312Z" fill="#9933FF"/>
<path fill-rule="evenodd" clip-rule="evenodd" d="M12.2167 0.0651855H6.54856C6.37072 0.0651855 6.21442 0.156831 6.12278 0.295124L0.106092 8.1228C0.041247 8.20637 0.00419092 8.30814 0.00012207 8.41384H9.82734C9.82734 8.37251 9.8345 8.33296 9.84527 8.29348L12.2167 0.0651855Z" fill="#9933FF"/>
<path fill-rule="evenodd" clip-rule="evenodd" d="M12.2167 0.0651855L9.84524 8.29348C9.83446 8.33303 9.8273 8.37251 9.8273 8.41384H22.6243C22.6225 8.35635 22.6099 8.30248 22.5901 8.25032L20.2312 0.0651855H12.2167Z" fill="#7A29CC"/>
<path fill-rule="evenodd" clip-rule="evenodd" d="M20.2312 0.0651855L22.5901 8.25032C22.6099 8.30241 22.6224 8.35629 22.6243 8.41384H32.4497C32.446 8.30496 32.4069 8.20027 32.3383 8.11557L26.3018 0.262801C26.2547 0.201871 26.1943 0.152541 26.1251 0.118594C26.056 0.0846465 25.98 0.0669836 25.903 0.0669601V0.0651855H20.2312Z" fill="#9933FF"/>
</svg>
