<svg width="68" height="68" viewBox="0 0 68 68" fill="none" xmlns="http://www.w3.org/2000/svg">
<path d="M7.37109 55.3164V44.6914H16.668V59.3008H11.3555C10.2987 59.3008 9.28531 58.881 8.53809 58.1338C7.79087 57.3866 7.37109 56.3731 7.37109 55.3164Z" fill="#AA6F3D"/>
<path d="M14.0117 59.3008H11.3555C10.2987 59.3008 9.28531 58.881 8.53809 58.1338C7.79087 57.3866 7.37109 56.3731 7.37109 55.3164V44.6914H10.0273V55.3164C10.0273 56.3731 10.4471 57.3866 11.1943 58.1338C11.9416 58.881 12.955 59.3008 14.0117 59.3008Z" fill="#9E653B"/>
<path d="M15.3398 46.0195H7.37109C7.01885 46.0195 6.68104 45.8796 6.43197 45.6305C6.1829 45.3815 6.04297 45.0436 6.04297 44.6914V42.0352C6.04297 41.3307 6.32282 40.655 6.82097 40.1569C7.31911 39.6588 7.99474 39.3789 8.69922 39.3789H15.3398V46.0195Z" fill="#C1773D"/>
<path d="M10.0273 46.0195H7.37109C7.01885 46.0195 6.68104 45.8796 6.43197 45.6305C6.1829 45.3815 6.04297 45.0436 6.04297 44.6914V42.0352C6.04286 41.6863 6.1115 41.3408 6.24495 41.0185C6.3784 40.6962 6.57406 40.4033 6.82073 40.1567C7.06741 39.91 7.36027 39.7143 7.68259 39.5809C8.00491 39.4474 8.35037 39.3788 8.69922 39.3789V44.6914C8.69922 45.0436 8.83915 45.3815 9.08822 45.6305C9.33729 45.8796 9.6751 46.0195 10.0273 46.0195ZM60.6289 55.3164V44.6914H51.332V59.3008H56.6445C57.7013 59.3008 58.7147 58.881 59.4619 58.1338C60.2091 57.3866 60.6289 56.3731 60.6289 55.3164Z" fill="#AA6F3D"/>
<path d="M52.6602 46.0195H60.6289C60.9811 46.0195 61.319 45.8796 61.568 45.6305C61.8171 45.3815 61.957 45.0436 61.957 44.6914V42.0352C61.957 41.3307 61.6772 40.655 61.179 40.1569C60.6809 39.6588 60.0053 39.3789 59.3008 39.3789H52.6602V46.0195Z" fill="#C1773D"/>
<path d="M50.6016 64.6133H17.3984C15.9895 64.6133 14.6382 64.0536 13.6419 63.0573C12.6456 62.061 12.0859 60.7097 12.0859 59.3008V10.1602H55.9141V59.3008C55.9141 60.7097 55.3544 62.061 54.3581 63.0573C53.3618 64.0536 52.0105 64.6133 50.6016 64.6133Z" fill="#F19B40"/>
<path d="M55.9141 26.0964V28.0886C55.2964 28.9144 54.4945 29.5846 53.5722 30.0459C52.65 30.5073 51.6328 30.7471 50.6016 30.7462H17.3984C16.3672 30.7471 15.35 30.5073 14.4278 30.0459C13.5055 29.5846 12.7036 28.9144 12.0859 28.0886V26.0964C12.7036 26.9222 13.5055 27.5924 14.4278 28.0538C15.35 28.5151 16.3672 28.7549 17.3984 28.754H50.6016C51.6328 28.7549 52.65 28.5151 53.5722 28.0538C54.4945 27.5924 55.2964 26.9222 55.9141 26.0964Z" fill="#D88646"/>
<path d="M49.2734 59.3008H37.3203C36.9681 59.3008 36.6303 59.1609 36.3812 58.9118C36.1321 58.6627 35.9922 58.3249 35.9922 57.9727V44.6914H50.6016V57.9727C50.6016 58.3249 50.4616 58.6627 50.2126 58.9118C49.9635 59.1609 49.6257 59.3008 49.2734 59.3008Z" fill="#FFB155"/>
<path d="M50.6016 48.0117V50.0039L45.5666 51.8354C44.1003 52.368 42.4934 52.368 41.0271 51.8354L35.9922 50.0039V48.0117L41.0271 49.8432C42.4934 50.3758 44.1003 50.3758 45.5666 49.8432L50.6016 48.0117Z" fill="#F19B40"/>
<path d="M50.6016 48.6758L45.5662 50.5067C44.1003 51.0398 42.4935 51.0398 41.0275 50.5067L35.9922 48.6758V44.6914C35.9922 44.3392 36.1321 44.0014 36.3812 43.7523C36.6303 43.5032 36.9681 43.3633 37.3203 43.3633H49.2734C49.6257 43.3633 49.9635 43.5032 50.2126 43.7523C50.4616 44.0014 50.6016 44.3392 50.6016 44.6914V48.6758Z" fill="#FFC980"/>
<path d="M43.2969 49.1802C43.847 49.1802 44.293 48.7342 44.293 48.1841C44.293 47.634 43.847 47.188 43.2969 47.188C42.7467 47.188 42.3008 47.634 42.3008 48.1841C42.3008 48.7342 42.7467 49.1802 43.2969 49.1802Z" fill="#FFB155"/>
<path d="M30.6797 59.3008H18.7266C18.3743 59.3008 18.0365 59.1609 17.7874 58.9118C17.5384 58.6627 17.3984 58.3249 17.3984 57.9727V44.6914H32.0078V57.9727C32.0078 58.3249 31.8679 58.6627 31.6188 58.9118C31.3697 59.1609 31.0319 59.3008 30.6797 59.3008Z" fill="#FFB155"/>
<path d="M32.0078 48.0117V50.0039L26.9729 51.8354C25.5066 52.368 23.8997 52.368 22.4334 51.8354L17.3984 50.0039V48.0117L22.4334 49.8432C23.8997 50.3758 25.5066 50.3758 26.9729 49.8432L32.0078 48.0117Z" fill="#F19B40"/>
<path d="M32.0078 48.6758L26.9725 50.5067C25.5065 51.0398 23.8997 51.0398 22.4338 50.5067L17.3984 48.6758V44.6914C17.3984 44.3392 17.5384 44.0014 17.7874 43.7523C18.0365 43.5032 18.3743 43.3633 18.7266 43.3633H30.6797C31.0319 43.3633 31.3697 43.5032 31.6188 43.7523C31.8679 44.0014 32.0078 44.3392 32.0078 44.6914V48.6758Z" fill="#FFC980"/>
<path d="M24.7031 49.1802C25.2533 49.1802 25.6992 48.7342 25.6992 48.1841C25.6992 47.634 25.2533 47.188 24.7031 47.188C24.153 47.188 23.707 47.634 23.707 48.1841C23.707 48.7342 24.153 49.1802 24.7031 49.1802Z" fill="#FFB155"/>
<path d="M54.748 62.6211C54.251 63.2434 53.6201 63.7457 52.9022 64.0906C52.1843 64.4355 51.398 64.6141 50.6016 64.6133H17.3984C15.9895 64.6133 14.6382 64.0536 13.6419 63.0573C12.6456 62.061 12.0859 60.7098 12.0859 59.3008V10.1602H14.7422V58.6367C14.7422 59.6934 15.162 60.7069 15.9092 61.4541C16.6564 62.2013 17.6698 62.6211 18.7266 62.6211H54.748ZM39.9766 13.6797C39.7124 13.6797 39.459 13.5747 39.2722 13.3879C39.0854 13.2011 38.9805 12.9478 38.9805 12.6836V9.36328C38.9805 8.04238 38.4557 6.77558 37.5217 5.84156C36.5877 4.90754 35.3209 4.38281 34 4.38281C32.6791 4.38281 31.4123 4.90754 30.4783 5.84156C29.5443 6.77558 29.0195 8.04238 29.0195 9.36328V12.6836C29.0195 12.9478 28.9146 13.2011 28.7278 13.3879C28.541 13.5747 28.2876 13.6797 28.0234 13.6797C27.7593 13.6797 27.5059 13.5747 27.3191 13.3879C27.1323 13.2011 27.0273 12.9478 27.0273 12.6836V9.36328C27.0273 7.51402 27.762 5.7405 29.0696 4.43287C30.3772 3.12524 32.1507 2.39063 34 2.39062C35.8493 2.39063 37.6228 3.12524 38.9304 4.43287C40.238 5.7405 40.9727 7.51402 40.9727 9.36328V12.6836C40.9727 12.9478 40.8677 13.2011 40.6809 13.3879C40.4941 13.5747 40.2407 13.6797 39.9766 13.6797Z" fill="#D88646"/>
<path d="M50.6016 28.7539H17.3984C15.6372 28.7539 13.9482 28.0543 12.7028 26.8089C11.4574 25.5636 10.7578 23.8745 10.7578 22.1133V10.1602C10.7578 9.80792 10.8977 9.4701 11.1468 9.22103C11.3959 8.97196 11.7337 8.83203 12.0859 8.83203H55.9141C56.2663 8.83203 56.6041 8.97196 56.8532 9.22103C57.1023 9.4701 57.2422 9.80792 57.2422 10.1602V22.1133C57.2422 22.9853 57.0704 23.8489 56.7367 24.6545C56.403 25.4602 55.9138 26.1923 55.2972 26.8089C54.6806 27.4256 53.9485 27.9147 53.1428 28.2484C52.3371 28.5821 51.4736 28.7539 50.6016 28.7539Z" fill="#FFB155"/>
<path d="M20.0547 28.7539H17.3984C15.6373 28.7537 13.9483 28.054 12.703 26.8087C11.4577 25.5634 10.758 23.8744 10.7578 22.1133V10.1602C10.7578 9.80792 10.8977 9.4701 11.1468 9.22103C11.3959 8.97196 11.7337 8.83203 12.0859 8.83203H13.4141V22.1133C13.4142 23.8744 14.1139 25.5634 15.3593 26.8087C16.6046 28.054 18.2935 28.7537 20.0547 28.7539Z" fill="#F19B40"/>
<path d="M45.9531 38.0508C45.2486 38.0508 44.573 37.7709 44.0749 37.2728C43.5767 36.7746 43.2969 36.099 43.2969 35.3945V8.83203C43.2969 8.47979 43.4368 8.14198 43.6859 7.89291C43.9349 7.64383 44.2728 7.50391 44.625 7.50391H47.2812C47.6335 7.50391 47.9713 7.64383 48.2204 7.89291C48.4694 8.14198 48.6094 8.47979 48.6094 8.83203V35.3945C48.6094 36.099 48.3295 36.7746 47.8314 37.2728C47.3332 37.7709 46.6576 38.0508 45.9531 38.0508Z" fill="#C1773D"/>
<path d="M49.2734 33.0276H42.6328C42.3686 33.0276 42.1153 32.9226 41.9285 32.7358C41.7417 32.549 41.6367 32.2957 41.6367 32.0315V25.3909C41.6367 25.1267 41.7417 24.8733 41.9285 24.6865C42.1153 24.4997 42.3686 24.3948 42.6328 24.3948H49.2734C49.5376 24.3948 49.791 24.4997 49.9778 24.6865C50.1646 24.8733 50.2695 25.1267 50.2695 25.3909V32.0315C50.2695 32.2957 50.1646 32.549 49.9778 32.7358C49.791 32.9226 49.5376 33.0276 49.2734 33.0276ZM43.6289 31.0354H48.2773V26.387H43.6289V31.0354Z" fill="#FFC980"/>
<path d="M45.9531 34.3557C45.6889 34.3557 45.4356 34.2508 45.2488 34.064C45.062 33.8772 44.957 33.6238 44.957 33.3596V29.3752C44.957 29.1111 45.062 28.8577 45.2488 28.6709C45.4356 28.4841 45.6889 28.3792 45.9531 28.3792C46.2173 28.3792 46.4707 28.4841 46.6575 28.6709C46.8443 28.8577 46.9492 29.1111 46.9492 29.3752V33.3596C46.9492 33.6238 46.8443 33.8772 46.6575 34.064C46.4707 34.2508 46.2173 34.3557 45.9531 34.3557Z" fill="#FFB155"/>
<path d="M22.0469 38.0508C21.3424 38.0508 20.6668 37.7709 20.1686 37.2728C19.6705 36.7746 19.3906 36.099 19.3906 35.3945V8.83203C19.3906 8.47979 19.5306 8.14198 19.7796 7.89291C20.0287 7.64383 20.3665 7.50391 20.7188 7.50391H23.375C23.7272 7.50391 24.0651 7.64383 24.3141 7.89291C24.5632 8.14198 24.7031 8.47979 24.7031 8.83203V35.3945C24.7031 36.099 24.4233 36.7746 23.9251 37.2728C23.427 37.7709 22.7514 38.0508 22.0469 38.0508Z" fill="#C1773D"/>
<path d="M25.3672 33.0276H18.7266C18.4624 33.0276 18.209 32.9226 18.0222 32.7358C17.8354 32.549 17.7305 32.2957 17.7305 32.0315V25.3909C17.7305 25.1267 17.8354 24.8733 18.0222 24.6865C18.209 24.4997 18.4624 24.3948 18.7266 24.3948H25.3672C25.6314 24.3948 25.8847 24.4997 26.0715 24.6865C26.2583 24.8733 26.3633 25.1267 26.3633 25.3909V32.0315C26.3633 32.2957 26.2583 32.549 26.0715 32.7358C25.8847 32.9226 25.6314 33.0276 25.3672 33.0276ZM19.7227 31.0354H24.3711V26.387H19.7227V31.0354Z" fill="#FFC980"/>
<path d="M22.0469 34.3557C21.7827 34.3557 21.5293 34.2508 21.3425 34.064C21.1557 33.8772 21.0508 33.6238 21.0508 33.3596V29.3752C21.0508 29.1111 21.1557 28.8577 21.3425 28.6709C21.5293 28.4841 21.7827 28.3792 22.0469 28.3792C22.3111 28.3792 22.5644 28.4841 22.7512 28.6709C22.938 28.8577 23.043 29.1111 23.043 29.3752V33.3596C23.043 33.6238 22.938 33.8772 22.7512 34.064C22.5644 34.2508 22.3111 34.3557 22.0469 34.3557Z" fill="#FFB155"/>
</svg>
