<svg width="40" height="44" viewBox="0 0 40 44" fill="none" xmlns="http://www.w3.org/2000/svg">
<path d="M38.8594 32.4063L36.1875 28.5625C35.8228 28.04 35.6265 27.4185 35.625 26.7813V15.75C35.625 11.606 33.9788 7.63171 31.0485 4.70146C28.1183 1.7712 24.144 0.125 20 0.125C15.856 0.125 11.8817 1.7712 8.95144 4.70146C6.02119 7.63171 4.37499 11.606 4.37499 15.75V26.7813C4.37348 27.4185 4.17721 28.04 3.81249 28.5625L1.14061 32.4063C0.736048 32.8545 0.470013 33.4104 0.374678 34.0066C0.279342 34.6029 0.358789 35.214 0.603411 35.766C0.848033 36.3181 1.24735 36.7874 1.75308 37.1173C2.25881 37.4473 2.84929 37.6236 3.45311 37.625H12.3437C12.7024 39.3911 13.6605 40.9789 15.0558 42.1193C16.4512 43.2598 18.1979 43.8828 20 43.8828C21.8021 43.8828 23.5488 43.2598 24.9441 42.1193C26.3395 40.9789 27.2976 39.3911 27.6562 37.625H36.5469C37.1507 37.6236 37.7412 37.4473 38.2469 37.1173C38.7526 36.7874 39.1519 36.3181 39.3966 35.766C39.6412 35.214 39.7206 34.6029 39.6253 34.0066C39.53 33.4104 39.2639 32.8545 38.8594 32.4063ZM20 40.75C19.0329 40.7473 18.0903 40.4455 17.3014 39.886C16.5126 39.3266 15.9161 38.5368 15.5937 37.625H24.4062C24.0839 38.5368 23.4874 39.3266 22.6985 39.886C21.9097 40.4455 20.9671 40.7473 20 40.75ZM3.45311 34.5C3.52373 34.4345 3.58664 34.3611 3.64061 34.2813L6.37499 30.3438C7.10443 29.2987 7.49697 28.0557 7.49999 26.7813V15.75C7.49999 12.4348 8.81695 9.25537 11.1611 6.91117C13.5054 4.56696 16.6848 3.25 20 3.25C23.3152 3.25 26.4946 4.56696 28.8388 6.91117C31.183 9.25537 32.5 12.4348 32.5 15.75V26.7813C32.503 28.0557 32.8955 29.2987 33.625 30.3438L36.3594 34.2813C36.4133 34.3611 36.4762 34.4345 36.5469 34.5H3.45311Z" fill="#3D5AFE"/>
</svg>
