<svg width="489" height="512" viewBox="0 0 489 512" fill="none" xmlns="http://www.w3.org/2000/svg">
<path d="M244.316 362.668C185.5 362.668 137.648 314.816 137.648 256C137.648 197.184 185.5 149.332 244.316 149.332C303.129 149.332 350.98 197.184 350.98 256C350.98 314.816 303.13 362.668 244.316 362.668ZM244.316 181.332C203.141 181.332 169.648 214.828 169.648 256C169.648 297.172 203.141 330.668 244.316 330.668C285.488 330.668 318.98 297.172 318.98 256C318.98 214.828 285.488 181.332 244.316 181.332Z" fill="#5C5E67"/>
<path d="M279.793 512H208.836C191.77 512 176.688 499.883 172.976 483.18L163.996 443.242C149.359 437.035 135.406 428.93 122.309 419.032L83.418 431.316C66.734 436.5 48.602 429.418 40.238 414.484L4.87097 353.324C-3.60203 338.176 -0.742028 319.531 11.719 307.797L41.859 280.086C40.945 271.957 40.496 263.895 40.496 256C40.496 248.105 40.946 240.043 41.84 231.914L11.867 204.332C-0.743028 192.469 -3.62103 173.824 4.76197 158.872L40.348 97.324C48.602 82.559 66.778 75.543 83.355 80.641L122.309 92.949C135.406 83.051 149.359 74.945 163.996 68.734L172.996 28.758C176.688 12.118 191.77 0 208.836 0H279.793C296.859 0 311.941 12.117 315.653 28.82L324.633 68.758C339.27 74.965 353.223 83.07 366.32 92.968L405.21 80.684C421.938 75.543 440.027 82.582 448.39 97.516L483.762 158.676C492.23 173.824 489.372 192.469 476.91 204.203L446.77 231.914C447.664 240.043 448.113 248.129 448.113 256C448.113 263.871 447.664 271.957 446.77 280.086L476.762 307.648C476.805 307.691 476.848 307.734 476.91 307.778C482.968 313.47 486.945 321.027 488.206 329.244C489.467 337.46 487.939 345.862 483.867 353.109L448.281 414.656C440.027 429.418 421.895 436.48 405.254 431.316L366.297 419.008C353.199 428.906 339.247 437.012 324.613 443.223L315.609 483.199C311.941 499.883 296.86 512 279.793 512ZM125.574 385.258C129.242 385.258 132.848 386.516 135.75 388.906C150.406 400.961 166.383 410.262 183.3 416.492C185.805 417.415 188.039 418.951 189.798 420.959C191.557 422.967 192.786 425.383 193.371 427.988L204.231 476.203C204.719 478.422 206.661 480 208.859 480H279.813C282.012 480 283.953 478.422 284.422 476.246L295.301 427.988C295.886 425.383 297.114 422.967 298.873 420.959C300.632 418.951 302.866 417.415 305.371 416.492C322.266 410.262 338.266 400.961 352.921 388.906C354.977 387.202 357.427 386.042 360.048 385.531C362.669 385.021 365.376 385.176 367.921 385.984L414.875 400.813C417.113 401.516 419.504 400.683 420.527 398.848L456.113 337.301C457.18 335.402 456.793 332.801 455.09 331.137L419.078 298.027C417.153 296.257 415.691 294.042 414.821 291.577C413.951 289.111 413.698 286.469 414.086 283.883C415.492 274.433 416.199 265.047 416.199 255.98C416.199 246.91 415.492 237.523 414.086 228.074C413.7 225.488 413.953 222.847 414.823 220.381C415.693 217.916 417.154 215.701 419.078 213.93L455.172 180.734C456.793 179.223 457.18 176.574 456.004 174.464L420.633 113.301C419.484 111.273 417.051 110.465 414.832 111.168L367.942 125.973C362.777 127.617 357.148 126.508 352.945 123.051C338.289 110.996 322.309 101.695 305.391 95.465C302.886 94.5424 300.652 93.0069 298.894 90.9987C297.135 88.9905 295.908 86.5737 295.324 83.969L284.464 35.754C283.93 33.578 281.988 32 279.793 32H208.836C206.641 32 204.699 33.578 204.23 35.754L193.348 84.012C192.76 86.6152 191.532 89.0303 189.774 91.0379C188.016 93.0456 185.784 94.5821 183.281 95.508C166.383 101.738 150.383 111.039 135.75 123.094C131.547 126.551 125.871 127.637 120.754 126.016L73.797 111.187C71.602 110.507 69.168 111.317 68.145 113.152L32.559 174.676C31.492 176.598 31.879 179.242 33.649 180.906L69.617 213.953C71.5419 215.723 73.0035 217.938 73.8738 220.404C74.7441 222.87 74.9965 225.512 74.609 228.098C73.199 237.547 72.496 246.934 72.496 256C72.496 265.066 73.199 274.453 74.609 283.902C75.399 289.152 73.519 294.442 69.617 298.047L33.52 331.242C31.898 332.758 31.516 335.402 32.687 337.516L68.059 398.676C69.187 400.703 71.621 401.492 73.859 400.813L120.754 386.003C122.332 385.493 123.954 385.258 125.574 385.258Z" fill="#5C5E67"/>
</svg>