<svg width="99" height="100" viewBox="0 0 99 100" fill="none" xmlns="http://www.w3.org/2000/svg">
<path d="M25.1987 93.2049H1.71192C0.775942 93.2049 0.0168915 93.963 0.0168915 94.899V98.288C0.0168915 98.7376 0.195474 99.1687 0.513353 99.4866C0.831231 99.8045 1.26237 99.9831 1.71192 99.9831H96.6108C97.0604 99.9831 97.4915 99.8045 97.8094 99.4866C98.1273 99.1687 98.3059 98.7376 98.3059 98.288V94.899C98.3059 93.963 97.5466 93.2047 96.6108 93.2047L25.1987 93.2049Z" fill="#636C77"/>
<path d="M25.1987 93.2049H1.71192C0.775942 93.2049 0.0168915 93.963 0.0168915 94.899V98.288C0.0168915 98.7376 0.195474 99.1687 0.513353 99.4866C0.831231 99.8045 1.26237 99.9831 1.71192 99.9831H96.6108C97.0604 99.9831 97.4915 99.8045 97.8094 99.4866C98.1273 99.1687 98.3059 98.7376 98.3059 98.288V94.899C98.3059 93.963 97.5466 93.2047 96.6108 93.2047L25.1987 93.2049Z" fill="#636C77"/>
<path d="M94.9158 52.5218C94.9158 77.7913 74.4312 98.2767 49.1609 98.2767C23.8913 98.2767 3.40596 77.7913 3.40596 52.5218C3.40596 27.2522 23.8913 6.76685 49.1609 6.76685C74.4312 6.76685 94.9158 27.2522 94.9158 52.5218Z" fill="#697FFF"/>
<path d="M61.1424 89.5783C53.3254 92.1375 44.8959 92.1375 37.0788 89.5783L46.0089 62.1925L49.1609 52.5332L52.2793 62.1925L61.1424 89.5783Z" fill="#EB86BE"/>
<path d="M49.1609 52.5165V52.5333L46.0091 62.1926L37.0788 89.5783C29.2471 87.0369 22.4314 82.0616 17.6241 75.3771L40.9424 58.4815L49.1441 52.5165H49.1609Z" fill="#3D5AFE"/>
<path d="M49.1441 52.5165L40.9424 58.4816L17.6241 75.3772C12.7907 68.7218 10.1866 60.708 10.1843 52.4827L38.9767 52.5165H49.1441Z" fill="#5E9CEA"/>
<path d="M49.1441 52.5165H38.9767L10.1843 52.4829C10.1842 44.2465 12.8015 36.2231 17.6584 29.5712L40.9424 46.5175L49.1441 52.5165Z" fill="#73B0F4"/>
<path d="M53.4318 13.7939C56.0865 14.083 58.7044 14.6454 61.2438 15.472L52.3129 42.857L49.1611 52.5165L46.0433 42.857L37.1635 15.4554C39.675 14.6364 42.2645 14.0796 44.8907 13.7939H53.4318Z" fill="#F4F6F8"/>
<path d="M80.6985 29.6556L57.3802 46.5512L49.1609 52.5164L52.3127 42.8569L61.244 15.4719C69.0711 18.0129 75.8854 22.9809 80.6987 29.6556H80.6985Z" fill="#FFD67B"/>
<path d="M88.1375 52.5507L59.3459 52.5331H49.1609V52.5165L57.3802 46.5513L80.6985 29.6558C85.5196 36.3175 88.1221 44.3275 88.1375 52.5507Z" fill="#F5B945"/>
<path d="M88.1375 52.5506C88.1382 60.7868 85.5211 68.81 80.6641 75.4617L57.3802 58.515L49.1785 52.5332H59.3459L88.1375 52.5506Z" fill="#FA6C51"/>
<path d="M80.6641 75.4617C75.8057 82.1055 68.9738 87.0458 61.1424 89.5783L52.2793 62.1925L49.1609 52.5332H49.1785L57.3802 58.515L80.6641 75.4617Z" fill="#EB5463"/>
<path d="M49.1609 52.5164H49.1441L40.9424 46.5174L17.6584 29.5711C22.5067 22.9245 29.3345 17.9832 37.1635 15.4553L46.0433 42.8569L49.1609 52.5164Z" fill="#66D4F1"/>
<path d="M61.1592 89.6117L61.1424 89.5783L61.1592 89.6117ZM17.6241 75.377L17.6073 75.3938L17.6241 75.377ZM80.7155 29.6389L80.6985 29.6557L80.7155 29.6389Z" fill="#5E9CEA"/>
<path d="M59.3291 52.5217C59.3291 58.1368 54.7767 62.6891 49.1609 62.6891C43.5458 62.6891 38.9935 58.1368 38.9935 52.5217C38.9935 46.9059 43.5458 42.3535 49.1609 42.3535C54.7767 42.3535 59.3291 46.9059 59.3291 52.5217Z" fill="#F4F6F8"/>
<path d="M59.1422 2.52496L57.4815 5.81268L55.8721 8.96449L53.4318 13.7938L50.5675 19.4373C50.3158 19.9872 49.7659 20.3403 49.1609 20.3403C48.5559 20.3403 48.0068 19.9872 47.7543 19.4371L44.8907 13.7939L42.4337 8.96469L40.8234 5.7791L39.1796 2.52496C39.0431 2.27012 38.9732 1.98494 38.9764 1.69588C38.9795 1.40682 39.0556 1.12323 39.1975 0.871403C39.3395 0.619581 39.5427 0.40768 39.7884 0.255348C40.0341 0.103016 40.3143 0.0151854 40.603 0L57.7188 0C58.0075 0.0150528 58.2878 0.102798 58.5336 0.255093C58.7794 0.407389 58.9827 0.619299 59.1247 0.871159C59.2667 1.12302 59.3428 1.40667 59.3459 1.69579C59.3489 1.9849 59.2788 2.27012 59.1422 2.52496Z" fill="#FDCD56"/>
<path d="M98.3057 94.899V98.288C98.3057 98.7376 98.1271 99.1687 97.8092 99.4866C97.4913 99.8045 97.0602 99.9831 96.6106 99.9831H93.2727C93.492 99.98 93.7086 99.9337 93.91 99.8468C94.1113 99.7599 94.2936 99.6342 94.4462 99.4767C94.5989 99.3192 94.7189 99.1331 94.7995 98.9292C94.8801 98.7252 94.9196 98.5073 94.9158 98.288V94.899C94.9195 94.6797 94.8799 94.4619 94.7993 94.2581C94.7186 94.0542 94.5986 93.8682 94.4459 93.7108C94.2933 93.5534 94.1111 93.4277 93.9098 93.3408C93.7084 93.254 93.492 93.2077 93.2727 93.2047H96.6108C97.5466 93.2047 98.3059 93.963 98.3059 94.899H98.3057Z" fill="#565F68"/>
<path d="M80.6641 75.4617C75.8057 82.1055 68.9738 87.0458 61.1424 89.5783L60.7861 88.4769C67.9998 85.4718 74.1412 80.3636 78.41 73.8179L80.6641 75.4617Z" fill="#D94452"/>
<path d="M61.1424 89.5784C56.7825 91.0048 52.2031 91.6418 47.6194 91.4595C52.1499 91.2499 56.6075 90.2401 60.7861 88.4768L61.1424 89.5784Z" fill="#D56FAC"/>
<path d="M61.2438 15.472L60.8708 16.5903C59.88 16.1795 58.8739 15.8065 57.8547 15.472C55.3421 14.6536 52.7532 14.0914 50.1275 13.7939H53.4318C56.0865 14.083 58.7044 14.6454 61.2438 15.472Z" fill="#CAD0D7"/>
<path d="M80.6985 29.6556L78.4444 31.2995C74.1978 24.7418 68.0737 19.6159 60.8708 16.5903L61.2438 15.4719C69.0709 18.0129 75.8852 22.9809 80.6985 29.6556Z" fill="#F5B945"/>
<path d="M88.1375 52.5507H84.748C84.748 45.0062 82.5582 37.6239 78.4444 31.2996L80.6983 29.6558C85.5193 36.3175 88.1219 44.3275 88.1373 52.5507H88.1375Z" fill="#EDAE3E"/>
<path d="M88.1375 52.5507C88.1382 60.7868 85.5211 68.8101 80.6641 75.4618L78.41 73.8179C82.5267 67.4871 84.7276 60.1022 84.7482 52.5507H88.1375Z" fill="#E85841"/>
<path d="M59.1422 2.52496L57.4815 5.81268L55.8721 8.96449L53.4318 13.7938L50.5675 19.4373C50.3158 19.9872 49.7659 20.3403 49.1609 20.3403C48.5559 20.3403 48.0068 19.9872 47.7543 19.4371L47.4666 18.878L50.0428 13.7939L52.483 8.96469L54.0925 5.81268L55.7531 2.52496C55.8897 2.2701 55.9597 1.98487 55.9566 1.69574C55.9535 1.40661 55.8774 1.12295 55.7354 0.871082C55.5933 0.619216 55.39 0.407309 55.1442 0.255027C54.8984 0.102744 54.6181 0.0150215 54.3293 0L57.7186 0C58.0074 0.0150528 58.2876 0.102798 58.5334 0.255093C58.7792 0.407389 58.9825 0.619299 59.1245 0.871159C59.2665 1.12302 59.3426 1.40667 59.3457 1.69579C59.3488 1.9849 59.2788 2.27012 59.1422 2.52496Z" fill="#F5B945"/>
<path d="M46.1417 55.753C45.8279 55.7536 45.52 55.6672 45.2524 55.5033C44.9848 55.3394 44.7679 55.1045 44.6259 54.8246C44.2317 54.0492 44.043 53.1856 44.0779 52.3164C44.1127 51.4473 44.37 50.6016 44.8251 49.8602C45.28 49.119 45.9176 48.5069 46.6767 48.0824C47.4358 47.658 48.2912 47.4354 49.1609 47.436C50.0969 47.436 50.8559 48.1951 50.8559 49.1303C50.8559 49.5798 50.6773 50.011 50.3594 50.3288C50.0416 50.6467 49.6104 50.8253 49.1609 50.8253C48.8032 50.8263 48.455 50.9405 48.1661 51.1515C47.8773 51.3624 47.6627 51.6595 47.553 51.9999C47.4819 52.2111 47.4541 52.4344 47.4713 52.6565C47.4884 52.8787 47.5501 53.0951 47.6527 53.2929C47.7833 53.5509 47.8456 53.8382 47.8336 54.1271C47.8216 54.4161 47.7357 54.6972 47.5842 54.9436C47.433 55.1901 47.2212 55.3937 46.9689 55.5352C46.7167 55.6766 46.4324 55.751 46.1432 55.7514L46.1417 55.753Z" fill="white"/>
<path d="M94.2718 67.2256C87.9125 86.7399 69.7361 99.9609 49.212 99.9998C44.1978 99.99 39.2164 99.1894 34.4517 97.6273C13.7931 90.8521 0.375426 70.9117 1.87966 49.2225C3.38468 27.5336 19.4275 9.6366 40.8234 5.77905L42.4337 8.96445C22.2688 12.0706 6.87452 28.6136 5.22441 48.9487C3.57527 69.2845 16.102 88.0924 35.5025 94.4077C52.4461 99.9342 71.0503 94.7089 82.639 81.169C94.2282 67.6291 96.5183 48.4413 88.4423 32.5536C82.009 19.9116 69.8896 11.1348 55.8721 8.96445L57.4817 5.81264C59.6467 6.18938 61.7817 6.72165 63.8701 7.40534C88.7797 15.5354 102.388 42.3123 94.272 67.2256H94.2718Z" fill="#3D5AFE"/>
<path d="M49.1609 64.3842C44.0219 64.3803 39.4694 61.0676 37.8851 56.1785C36.3008 51.2891 38.0444 45.9356 42.2048 42.9187C46.3661 39.901 51.9961 39.9063 56.1513 42.9318C60.3063 45.9563 62.0409 51.3128 60.4474 56.1992C58.8661 61.092 54.303 64.401 49.1609 64.3842ZM49.1609 44.0484C44.7359 44.0454 41.0515 47.4453 40.699 51.8566C40.3475 56.268 43.4453 60.2093 47.8152 60.9088C52.1856 61.6075 56.3587 58.8302 57.4007 54.5294C58.4427 50.228 56.0033 45.8487 51.7979 44.4704C50.9471 44.1896 50.0569 44.0462 49.1609 44.0454V44.0484Z" fill="#CAD0D7"/>
</svg>
