<svg width="104" height="104" viewBox="0 0 104 104" fill="none" xmlns="http://www.w3.org/2000/svg">
<path d="M52 1C62.0868 1 71.9472 3.9911 80.3341 9.59505C88.721 15.199 95.2578 23.1641 99.1179 32.4831C102.978 41.8022 103.988 52.0566 102.02 61.9496C100.052 71.8426 95.1949 80.93 88.0624 88.0624L77.965 77.965C83.1003 72.8296 86.5976 66.2867 88.0144 59.1637C89.4313 52.0407 88.7041 44.6576 85.9249 37.9479C83.1456 31.2382 78.4391 25.5033 72.4005 21.4684C66.362 17.4336 59.2625 15.28 52 15.28L52 1Z" fill="#14B8A6" stroke="black" stroke-opacity="0.2" stroke-width="2"/>
<path d="M52 103C43.0476 103 34.253 100.643 26.5 96.1673L33.64 83.8005C39.2221 87.0233 45.5543 88.72 52 88.72L52 103Z" fill="#6366F1" stroke="black" stroke-opacity="0.2" stroke-width="2"/>
<path d="M26.5 96.1673C18.747 91.6911 12.3089 85.253 7.8327 77.5C3.35652 69.747 0.999999 60.9524 1 52L15.28 52C15.28 58.4457 16.9767 64.7779 20.1995 70.36C23.4224 75.9421 28.0579 80.5776 33.64 83.8005L26.5 96.1673Z" fill="#EC4899" stroke="black" stroke-opacity="0.2" stroke-width="2"/>
<path d="M1 52C1 45.3026 2.31916 38.6707 4.88215 32.4831C7.44514 26.2955 11.2018 20.6733 15.9376 15.9375L26.035 26.035C22.6253 29.4448 19.9205 33.4928 18.0751 37.9479C16.2298 42.4029 15.28 47.1779 15.28 52L1 52Z" fill="#F59E0B" stroke="black" stroke-opacity="0.2" stroke-width="2"/>
<path d="M15.9376 15.9376C20.6733 11.2018 26.2955 7.44513 32.4831 4.88214C38.6707 2.31915 45.3026 1 52 1L52 15.28C47.1779 15.28 42.4029 16.2298 37.9479 18.0751C33.4928 19.9205 29.4448 22.6253 26.035 26.035L15.9376 15.9376Z" fill="#FACC15" stroke="black" stroke-opacity="0.2" stroke-width="2"/>
<path d="M88.0624 88.0624C78.4981 97.6268 65.526 103 52 103L52 88.72C61.7388 88.72 71.0786 84.8513 77.965 77.965L88.0624 88.0624Z" fill="#3B82F6" stroke="black" stroke-opacity="0.2" stroke-width="2"/>
</svg>
