<svg width="512" height="512" viewBox="0 0 512 512" fill="none" xmlns="http://www.w3.org/2000/svg">
<path d="M494.345 494.345H17.655V57.3788C17.655 56.7992 17.7692 56.2252 17.991 55.6897C18.2128 55.1541 18.538 54.6676 18.9478 54.2577C19.3577 53.8478 19.8443 53.5227 20.3798 53.3008C20.9154 53.079 21.4893 52.9648 22.069 52.9648H489.931C490.511 52.9648 491.085 53.079 491.62 53.3008C492.156 53.5227 492.642 53.8478 493.052 54.2577C493.462 54.6676 493.787 55.1541 494.009 55.6897C494.231 56.2252 494.345 56.7992 494.345 57.3788V494.345Z" fill="#9D94E3"/>
<path d="M17.655 414.9H494.345V485.52H17.655V414.9ZM494.345 211.102C492.536 211.552 490.675 211.862 488.727 211.862C475.874 211.862 465.454 201.442 465.454 188.589C465.454 201.441 455.034 211.862 442.181 211.862C429.328 211.862 418.908 201.442 418.908 188.589C418.908 201.441 408.489 211.862 395.635 211.862C382.782 211.862 372.362 201.442 372.362 188.589C372.362 201.441 361.942 211.862 349.089 211.862C336.236 211.862 325.816 201.442 325.816 188.589C325.816 201.441 315.396 211.862 302.543 211.862C289.69 211.862 279.27 201.442 279.27 188.589C279.27 201.441 268.851 211.862 255.997 211.862C243.143 211.862 232.724 201.442 232.724 188.589C232.724 201.441 222.304 211.862 209.451 211.862C196.598 211.862 186.178 201.442 186.178 188.589C186.178 201.441 175.759 211.862 162.905 211.862C150.052 211.862 139.632 201.442 139.632 188.589C139.632 201.441 129.212 211.862 116.359 211.862C103.506 211.862 93.086 201.442 93.086 188.589C93.086 201.441 82.666 211.862 69.813 211.862C56.96 211.862 46.54 201.442 46.54 188.589C46.54 201.441 36.121 211.862 23.267 211.862C21.319 211.862 19.458 211.552 17.649 211.102V228.95C19.503 229.207 21.343 229.518 23.267 229.518C31.906 229.518 39.928 226.828 46.54 222.241C53.3725 226.988 61.4954 229.527 69.815 229.517C78.454 229.517 86.476 226.827 93.088 222.24C99.7 226.827 107.722 229.517 116.361 229.517C125 229.517 133.022 226.827 139.634 222.24C146.466 226.987 154.588 229.527 162.907 229.517C171.546 229.517 179.568 226.827 186.18 222.24C193.012 226.987 201.134 229.527 209.453 229.517C218.092 229.517 226.114 226.827 232.726 222.24C239.557 226.988 247.679 229.527 255.998 229.517C264.637 229.517 272.659 226.827 279.271 222.24C285.883 226.827 293.905 229.517 302.544 229.517C311.183 229.517 319.205 226.827 325.817 222.24C332.429 226.827 340.451 229.517 349.09 229.517C357.729 229.517 365.751 226.827 372.363 222.24C378.975 226.827 386.997 229.517 395.636 229.517C404.275 229.517 412.297 226.827 418.909 222.24C425.741 226.987 433.863 229.527 442.182 229.517C450.822 229.517 458.843 226.827 465.455 222.24C472.287 226.987 480.409 229.527 488.728 229.517C490.651 229.517 492.492 229.207 494.346 228.949V211.102H494.345Z" fill="#9D94E3"/>
<path d="M61.793 264.83H308.963V441.38H61.793V264.83ZM344.28 264.83H450.21V441.38H344.28V264.83Z" fill="#B4E1FA"/>
<path d="M344.28 264.83H450.21V291.313H344.28V264.83Z" fill="#A0D2F0"/>
<path d="M450.207 347.219L388.414 264.828H370.759L450.207 370.759V347.219Z" fill="#DAF0FD"/>
<path d="M353.103 264.828H344.276V300.138L450.207 441.379V394.298L353.103 264.828Z" fill="#A0D2F0"/>
<path d="M408.276 291.31L388.414 264.828H370.759L390.621 291.31H408.276Z" fill="#B4E1FA"/>
<path d="M282.483 441.379H264.828L132.414 264.828H150.069L282.483 441.379Z" fill="#DAF0FD"/>
<path d="M247.172 441.379H211.862L79.448 264.828H114.759L247.172 441.379Z" fill="#A0D2F0"/>
<path d="M61.793 264.83H308.963V291.313H61.793V264.83Z" fill="#A0D2F0"/>
<path d="M169.931 291.31L150.069 264.828H132.414L152.276 291.31H169.931Z" fill="#B4E1FA"/>
<path d="M209.454 211.862C196.601 211.862 186.181 201.442 186.181 188.589V167.724H232.727V188.589C232.727 201.442 222.307 211.862 209.454 211.862ZM302.546 211.862C289.693 211.862 279.273 201.442 279.273 188.589V167.724H325.819V188.589C325.818 201.442 315.399 211.862 302.546 211.862ZM116.364 211.862C103.511 211.862 93.091 201.442 93.091 188.589V167.724H139.637V188.589C139.636 201.442 129.217 211.862 116.364 211.862ZM23.273 211.862C10.42 211.862 0 201.442 0 188.589V167.724H46.546V188.589C46.546 201.442 36.126 211.862 23.273 211.862ZM395.636 211.862C382.783 211.862 372.363 201.442 372.363 188.589V167.724H418.909V188.589C418.909 201.442 408.49 211.862 395.636 211.862Z" fill="#5A3C8E"/>
<path d="M162.909 211.862C150.056 211.862 139.636 201.442 139.636 188.589V167.724H186.182V188.589C186.182 201.442 175.763 211.862 162.909 211.862ZM349.091 211.862C336.238 211.862 325.818 201.442 325.818 188.589V167.724H372.364V188.589C372.364 201.442 361.944 211.862 349.091 211.862Z" fill="#C7CFE2"/>
<path d="M488.727 211.862C475.874 211.862 465.454 201.442 465.454 188.589V167.724H512V188.589C512 201.442 501.58 211.862 488.727 211.862Z" fill="#5A3C8E"/>
<path d="M442.182 211.862C429.329 211.862 418.909 201.442 418.909 188.589V167.724H465.455V188.589C465.454 201.442 455.034 211.862 442.182 211.862ZM69.818 211.862C56.965 211.862 46.545 201.442 46.545 188.589V167.724H93.091V188.589C93.091 201.442 82.671 211.862 69.818 211.862ZM256 211.862C243.147 211.862 232.727 201.442 232.727 188.589V167.724H279.273V188.589C279.273 201.442 268.853 211.862 256 211.862Z" fill="#C7CFE2"/>
<path d="M232.727 167.724H186.182L190.997 97.1028H234.333L232.727 167.724ZM325.818 167.724H279.273L277.667 97.1028H321.003L325.818 167.724ZM139.636 167.724H93.091L104.326 97.1028H147.661L139.636 167.724ZM46.546 167.724H0L17.655 97.1028H60.991L46.546 167.724ZM418.909 167.724H372.364L364.339 97.1028H407.674L418.909 167.724Z" fill="#5A3C8E"/>
<path d="M186.182 167.724H139.636L147.661 97.1028H190.997L186.182 167.724ZM372.364 167.724H325.818L321.003 97.1028H364.339L372.364 167.724Z" fill="#EFF2FA"/>
<path d="M512 167.724H465.454L451.009 97.1028H494.345L512 167.724Z" fill="#5A3C8E"/>
<path d="M465.454 167.724H418.909L407.674 97.1028H451.009L465.454 167.724ZM93.091 167.724H46.546L60.991 97.1028H104.326L93.091 167.724ZM279.273 167.724H232.727L234.333 97.1028H277.667L279.273 167.724Z" fill="#EFF2FA"/>
<path d="M300.138 273.655V432.552H70.621V273.655H300.138ZM308.966 256H61.793C59.4517 256 57.2065 256.93 55.5509 258.586C53.8954 260.241 52.9653 262.487 52.965 264.828V441.38C52.9653 443.721 53.8954 445.967 55.5509 447.622C57.2065 449.278 59.4517 450.208 61.793 450.208H308.965C311.306 450.208 313.552 449.278 315.207 447.622C316.863 445.967 317.793 443.721 317.793 441.38V264.828C317.793 262.487 316.863 260.242 315.208 258.586C313.552 256.93 311.307 256 308.966 256ZM450.207 256H344.276C341.935 256 339.689 256.93 338.034 258.586C336.378 260.241 335.448 262.487 335.448 264.828V485.518H459.034V264.828C459.034 262.487 458.104 260.242 456.449 258.586C454.793 256.93 452.548 256 450.207 256ZM441.379 432.552H353.103V273.655H441.379V432.552Z" fill="#5A3C8E"/>
<path d="M397.241 97.1029H114.759C105.008 97.1029 97.104 89.1989 97.104 79.4479V26.4829C97.104 16.7319 105.008 8.82788 114.759 8.82788H397.242C406.993 8.82788 414.897 16.7319 414.897 26.4829V79.4489C414.897 89.1989 406.993 97.1029 397.241 97.1029Z" fill="#887EDA"/>
<path d="M392.828 79.4479H119.172C118.001 79.4479 116.879 78.9829 116.051 78.1551C115.223 77.3273 114.758 76.2046 114.758 75.0339V30.8969C114.758 29.7262 115.223 28.6035 116.051 27.7757C116.879 26.948 118.001 26.4829 119.172 26.4829H392.827C393.998 26.4829 395.12 26.948 395.948 27.7757C396.776 28.6035 397.241 29.7262 397.241 30.8969V75.0349C397.241 76.2053 396.776 77.3278 395.948 78.1554C395.121 78.983 393.998 79.4479 392.828 79.4479Z" fill="#9D94E3"/>
<path d="M119.172 79.4479H392.827C393.998 79.4479 395.12 78.9829 395.948 78.1551C396.776 77.3273 397.241 76.2046 397.241 75.0339V57.3789C397.241 58.5496 396.776 59.6723 395.948 60.5001C395.12 61.3279 393.998 61.7929 392.827 61.7929H119.172C118.001 61.7929 116.879 61.3279 116.051 60.5001C115.223 59.6723 114.758 58.5496 114.758 57.3789V75.0339C114.758 76.2045 115.223 77.3271 116.051 78.1548C116.879 78.9825 118.001 79.4476 119.172 79.4479Z" fill="#9D94E3"/>
<path d="M507.586 503.172H4.414C3.24333 503.172 2.12062 502.707 1.29283 501.879C0.465045 501.051 0 499.929 0 498.758L0 489.93C0 488.759 0.465045 487.637 1.29283 486.809C2.12062 485.981 3.24333 485.516 4.414 485.516H507.586C508.757 485.516 509.879 485.981 510.707 486.809C511.535 487.637 512 488.759 512 489.93V498.758C512 499.929 511.535 501.051 510.707 501.879C509.879 502.707 508.757 503.172 507.586 503.172Z" fill="#5A3C8E"/>
</svg>
